<svg id="img-fi-mastercard" xmlns="http://www.w3.org/2000/svg" xmlns:xlink="http://www.w3.org/1999/xlink" width="45" height="29.143" viewBox="0 0 45 29.143">
  <defs>
    <clipPath id="clip-path">
      <path id="Clip_2" data-name="Clip 2" d="M0,3.717H28.324V0H0Z" transform="translate(0.008 0.019)" fill="none"/>
    </clipPath>
    <clipPath id="clip-path-2">
      <path id="Clip_5" data-name="Clip 5" d="M0,24.184H30.192V0H0Z" transform="translate(0 0)" fill="none"/>
    </clipPath>
  </defs>
  <rect id="Rectangle" width="45" height="29.143" rx="5.625"/>
  <g id="Mastercard_logo" data-name="Mastercard logo" transform="translate(7.312 2.429)">
    <g id="Group_3" data-name="Group 3" transform="translate(1.555 20.447)">
      <path id="Clip_2-2" data-name="Clip 2" d="M0,3.717H28.324V0H0Z" transform="translate(0.008 0.019)" fill="none"/>
      <g id="Group_3-2" data-name="Group 3" clip-path="url(#clip-path)">
        <path id="Fill_1" data-name="Fill 1" d="M28.073,3.717a.244.244,0,0,1-.1-.02.263.263,0,0,1-.08-.055.248.248,0,0,1-.053-.081.238.238,0,0,1-.02-.1.241.241,0,0,1,.02-.1.259.259,0,0,1,.053-.081.251.251,0,0,1,.179-.074.238.238,0,0,1,.1.02.253.253,0,0,1,.079.054.278.278,0,0,1,.054.081.257.257,0,0,1,.02.1.253.253,0,0,1-.02.1.266.266,0,0,1-.054.081.273.273,0,0,1-.079.055A.238.238,0,0,1,28.073,3.717Zm0-.451A.193.193,0,0,0,28,3.281a.2.2,0,0,0-.061.042.206.206,0,0,0-.056.14.2.2,0,0,0,.015.077.2.2,0,0,0,.041.063A.211.211,0,0,0,28,3.646a.193.193,0,0,0,.076.015.188.188,0,0,0,.075-.015.222.222,0,0,0,.06-.042.2.2,0,0,0,.041-.063.2.2,0,0,0,.015-.077.206.206,0,0,0-.056-.14.2.2,0,0,0-.06-.042A.188.188,0,0,0,28.073,3.266Zm-2.2.378A1.245,1.245,0,0,1,24.646,2.3,1.245,1.245,0,0,1,25.871.962a.973.973,0,0,1,.8.373V0h.5V3.58h-.5v-.31A.973.973,0,0,1,25.871,3.644Zm.067-2.207a.788.788,0,0,0-.773.866.771.771,0,1,0,1.531,0A.782.782,0,0,0,25.939,1.437ZM20.863,3.644A1.259,1.259,0,0,1,19.638,2.3,1.259,1.259,0,0,1,20.863.962a.97.97,0,0,1,.8.373v-.31h.5V3.58h-.5v-.31A.971.971,0,0,1,20.863,3.644Zm.068-2.207a.788.788,0,0,0-.773.866.771.771,0,1,0,1.531,0A.782.782,0,0,0,20.93,1.437ZM18.45,3.644a1.252,1.252,0,0,1-1.3-1.341A1.252,1.252,0,0,1,18.45.962a1.28,1.28,0,0,1,.893.3l-.26.4a1.063,1.063,0,0,0-.648-.23.8.8,0,0,0-.769.866.8.8,0,0,0,.769.866,1.064,1.064,0,0,0,.648-.23l.26.4A1.276,1.276,0,0,1,18.45,3.644Zm-4.754,0A1.236,1.236,0,0,1,12.434,2.3,1.215,1.215,0,0,1,13.659.962,1.2,1.2,0,0,1,14.828,2.3c0,.076-.005.146-.011.214H12.964a.738.738,0,0,0,.763.662,1.16,1.16,0,0,0,.722-.267l.265.379A1.479,1.479,0,0,1,13.7,3.644Zm-.047-2.207a.676.676,0,0,0-.686.647H14.3A.642.642,0,0,0,13.649,1.437ZM11.412,3.644c-.581,0-.841-.292-.841-.946V1.49h-.524V1.026h.524V.251h.5v.775h.9V1.49h-.9V2.709c0,.28.131.428.379.428a.983.983,0,0,0,.477-.144l.156.454A1.234,1.234,0,0,1,11.412,3.644Zm-2.859,0a1.817,1.817,0,0,1-1.075-.331l.255-.4a1.276,1.276,0,0,0,.825.267c.362,0,.587-.125.587-.327,0-.145-.167-.252-.457-.293l-.254-.038c-.555-.079-.836-.331-.836-.748,0-.508.378-.812,1.012-.812a1.822,1.822,0,0,1,1.012.267l-.233.417a1.561,1.561,0,0,0-.774-.22c-.3,0-.493.127-.493.316,0,.144.149.238.442.277l.254.038c.569.084.846.332.846.759C9.663,3.327,9.238,3.644,8.553,3.644Zm-2.921,0A1.245,1.245,0,0,1,4.406,2.3,1.245,1.245,0,0,1,5.631.962a.969.969,0,0,1,.8.373v-.31h.5V3.58h-.5v-.31A.97.97,0,0,1,5.631,3.644ZM5.7,1.437a.788.788,0,0,0-.774.866.772.772,0,1,0,1.532,0A.782.782,0,0,0,5.7,1.437ZM2.2,3.581h-.5V2.111c0-.434-.2-.673-.561-.673A.607.607,0,0,0,.5,2.116V3.58H0V1.026H.5v.31A.839.839,0,0,1,1.246.962a.9.9,0,0,1,.82.454A.948.948,0,0,1,2.914.962h.024a.918.918,0,0,1,.955,1.01V3.579h-.5V2.111c0-.434-.2-.673-.565-.673a.607.607,0,0,0-.628.679V3.58Zm21.211,0h-.5V1.026H23.4v.31a.763.763,0,0,1,.675-.373,1.121,1.121,0,0,1,.384.069l-.167.481a.859.859,0,0,0-.338-.064c-.344,0-.55.26-.55.695V3.579Zm-7.494,0h-.5V1.026h.493v.31a.763.763,0,0,1,.675-.373,1.121,1.121,0,0,1,.384.069l-.167.481a.859.859,0,0,0-.337-.064c-.344,0-.55.26-.55.695V3.579Z" transform="translate(0.008 0.019)" fill="#fff"/>
      </g>
    </g>
    <path id="Clip_5-2" data-name="Clip 5" d="M0,24.184H30.192V0H0Z" transform="translate(0 0)" fill="none"/>
    <g id="Mask_Group_1" data-name="Mask Group 1" clip-path="url(#clip-path-2)">
      <path id="Fill_4" data-name="Fill 4" d="M0,15.107H8.982V0H0Z" transform="translate(10.605 2.054)" fill="#ff5f00"/>
      <path id="Fill_6" data-name="Fill 6" d="M11.532,9.608A9.7,9.7,0,0,1,15.1,2.054,9.122,9.122,0,0,0,9.33,0,9.472,9.472,0,0,0,0,9.608a9.472,9.472,0,0,0,9.33,9.608A9.122,9.122,0,0,0,15.1,17.161a9.7,9.7,0,0,1-3.564-7.553" transform="translate(0 0)" fill="#eb001b"/>
      <path id="Fill_7" data-name="Fill 7" d="M.485.5H.413V0h.1L.635.344.752,0h.1V.5H.783V.122L.671.448H.6L.485.122V.5ZM.2.5H.131V.086H0V0H.336V.086H.2V.5Z" transform="translate(29.115 15.188)" fill="#f79e1b"/>
      <path id="Fill_8" data-name="Fill 8" d="M15.1,9.608a9.472,9.472,0,0,1-9.33,9.608A9.121,9.121,0,0,1,0,17.161,9.7,9.7,0,0,0,3.564,9.608,9.7,9.7,0,0,0,0,2.054,9.121,9.121,0,0,1,5.766,0,9.472,9.472,0,0,1,15.1,9.608" transform="translate(15.096 0)" fill="#f79e1b"/>
    </g>
  </g>
</svg>
