<svg xmlns="http://www.w3.org/2000/svg" width="15.2" height="15.6" viewBox="0 0 15.2 15.6">
  <path id="Combined_Shape" data-name="Combined Shape" d="M14.16,15.6H1.04A1.041,1.041,0,0,1,0,14.56V2.24A1.042,1.042,0,0,1,1.04,1.2h.767v2a.52.52,0,0,0,.519.52h.607a.521.521,0,0,0,.52-.52V.52A.521.521,0,0,1,3.975,0H5.423a.521.521,0,0,1,.5.388l.213.812H9.624v2a.521.521,0,0,0,.52.52h.607a.521.521,0,0,0,.52-.52V.527a.52.52,0,0,1,.519-.519h1.45a.519.519,0,0,1,.5.385l.216.806h.2A1.042,1.042,0,0,1,15.2,2.24V14.56A1.041,1.041,0,0,1,14.16,15.6ZM6.853,11.255a.521.521,0,0,0-.52.52v1.648a.521.521,0,0,0,.52.52H8.5a.521.521,0,0,0,.52-.52V11.775a.521.521,0,0,0-.52-.52Zm-4.576,0a.52.52,0,0,0-.519.52v1.648a.52.52,0,0,0,.519.52H3.925a.521.521,0,0,0,.52-.52V11.775a.521.521,0,0,0-.52-.52Zm9.151-4.763a.521.521,0,0,0-.52.52V8.66a.521.521,0,0,0,.52.52h1.648a.521.521,0,0,0,.52-.52V7.012a.521.521,0,0,0-.52-.52Zm-4.576,0a.521.521,0,0,0-.52.52V8.66a.521.521,0,0,0,.52.52H8.5a.521.521,0,0,0,.52-.52V7.012a.521.521,0,0,0-.52-.52Zm-4.576,0a.52.52,0,0,0-.519.52V8.66a.52.52,0,0,0,.519.52H3.925a.521.521,0,0,0,.52-.52V7.012a.521.521,0,0,0-.52-.52Z" fill="#fff"/>
</svg>
