<svg xmlns="http://www.w3.org/2000/svg" width="15.2" height="15.2" viewBox="0 0 15.2 15.2">
  <path id="Combined_Shape" data-name="Combined Shape" d="M14.16,15.2H1.04A1.042,1.042,0,0,1,0,14.16V1.04A1.042,1.042,0,0,1,1.04,0H14.16A1.042,1.042,0,0,1,15.2,1.04V14.16A1.042,1.042,0,0,1,14.16,15.2ZM11.326,8.9a.521.521,0,0,0-.52.52v2.543a.521.521,0,0,0,.52.52h.88a.521.521,0,0,0,.52-.52V9.42a.521.521,0,0,0-.52-.52ZM7.16,6.3a.521.521,0,0,0-.52.52v5.144a.521.521,0,0,0,.52.52H8.04a.521.521,0,0,0,.52-.52V6.819a.521.521,0,0,0-.52-.52ZM2.993,3.7a.521.521,0,0,0-.52.52v7.742a.521.521,0,0,0,.52.52h.88a.52.52,0,0,0,.519-.52V4.222a.52.52,0,0,0-.519-.52Z" fill="#fff"/>
</svg>
