<svg xmlns="http://www.w3.org/2000/svg" width="15.014" height="15.2" viewBox="0 0 15.014 15.2">
  <path id="Combined_Shape" data-name="Combined Shape" d="M13.414,15.2H1.6A1.6,1.6,0,0,1,0,13.6V1.04A1.042,1.042,0,0,1,1.04,0H11.048a1.042,1.042,0,0,1,1.04,1.04V3.189h1.885a1.041,1.041,0,0,1,1.04,1.039V13.6A1.6,1.6,0,0,1,13.414,15.2ZM11.446,5.6v6.546a.884.884,0,0,0,1.768,0V5.6ZM2.375,10.876a.521.521,0,0,0-.52.52v.728a.52.52,0,0,0,.52.519h5.2a.52.52,0,0,0,.52-.519V11.4a.521.521,0,0,0-.52-.52Zm0-3.276a.521.521,0,0,0-.52.52v.728a.521.521,0,0,0,.52.52h7.38a.52.52,0,0,0,.519-.52V8.12a.52.52,0,0,0-.519-.52Zm0-5.557a.521.521,0,0,0-.52.52V5.08a.521.521,0,0,0,.52.52h7.38a.52.52,0,0,0,.519-.52V2.563a.52.52,0,0,0-.519-.52Z" fill="#fff"/>
</svg>
