<svg xmlns="http://www.w3.org/2000/svg" width="15.2" height="15.6" viewBox="0 0 15.2 15.6">
  <path id="Combined_Shape" data-name="Combined Shape" d="M13.761,15.6H1.04A1.041,1.041,0,0,1,0,14.56V1.04A1.042,1.042,0,0,1,1.04,0H13.761A1.042,1.042,0,0,1,14.8,1.04V2.6H6.115A1.041,1.041,0,0,0,5.076,3.64V11.96A1.041,1.041,0,0,0,6.115,13H14.8V14.56A1.041,1.041,0,0,1,13.761,15.6Zm.4-4.16H8.078a1.041,1.041,0,0,1-1.04-1.04V5.2a1.042,1.042,0,0,1,1.04-1.04H14.16A1.042,1.042,0,0,1,15.2,5.2v5.2A1.041,1.041,0,0,1,14.16,11.44ZM9.6,6.46a.521.521,0,0,0-.52.52V8.628a.521.521,0,0,0,.52.52h1.466a.521.521,0,0,0,.52-.52V6.98a.521.521,0,0,0-.52-.52Z" fill="#fff"/>
</svg>
