<svg xmlns="http://www.w3.org/2000/svg" width="15.099" height="15.6" viewBox="0 0 15.099 15.6">
  <path id="Combined_Shape" data-name="Combined Shape" d="M14.06,15.6H1.04A1.041,1.041,0,0,1,0,14.56V1.04A1.042,1.042,0,0,1,1.04,0H14.06A1.041,1.041,0,0,1,15.1,1.04V14.56A1.041,1.041,0,0,1,14.06,15.6Zm-4.906-4.75a.521.521,0,0,0-.52.52v1.648a.521.521,0,0,0,.52.52H10.8a.521.521,0,0,0,.52-.52V11.37a.521.521,0,0,0-.52-.52Zm-4.93,0a.521.521,0,0,0-.52.52v1.648a.521.521,0,0,0,.52.52H5.872a.521.521,0,0,0,.52-.52V11.37a.521.521,0,0,0-.52-.52Zm4.93-4.394a.521.521,0,0,0-.52.52V8.624a.521.521,0,0,0,.52.52H10.8a.521.521,0,0,0,.52-.52V6.976a.521.521,0,0,0-.52-.52Zm-4.93,0a.521.521,0,0,0-.52.52V8.624a.521.521,0,0,0,.52.52H5.872a.521.521,0,0,0,.52-.52V6.976a.521.521,0,0,0-.52-.52ZM2.518,1.488a.521.521,0,0,0-.52.52V3.65a.52.52,0,0,0,.52.519h9.989a.52.52,0,0,0,.52-.519V2.008a.521.521,0,0,0-.52-.52Z" fill="#fff"/>
</svg>
