<svg xmlns="http://www.w3.org/2000/svg" width="15.787" height="15.787" viewBox="0 0 15.787 15.787">
  <path id="Combined_Shape" data-name="Combined Shape" d="M9.013,15.787H6.764a.312.312,0,0,1-.309-.269L6.22,13.811A6.072,6.072,0,0,1,4.9,13.25L3.512,14.3a.312.312,0,0,1-.409-.029l-1.59-1.59a.314.314,0,0,1-.028-.41l1.076-1.418a6.069,6.069,0,0,1-.513-1.275L.268,9.322A.314.314,0,0,1,0,9.013V6.764a.312.312,0,0,1,.269-.309l1.809-.248a6.084,6.084,0,0,1,.515-1.232l-1.1-1.463A.314.314,0,0,1,1.52,3.1l1.591-1.59a.311.311,0,0,1,.409-.028l1.457,1.1a6.029,6.029,0,0,1,1.234-.516L6.466.268A.313.313,0,0,1,6.774,0H9.023a.314.314,0,0,1,.31.269L9.58,2.061a6.059,6.059,0,0,1,1.255.515l1.441-1.084a.311.311,0,0,1,.408.028l1.591,1.591a.314.314,0,0,1,.028.409L13.225,4.942a6.092,6.092,0,0,1,.537,1.276l1.757.248a.313.313,0,0,1,.268.309V9.023a.31.31,0,0,1-.269.31l-1.73.238a6.121,6.121,0,0,1-.535,1.319L14.3,12.276a.313.313,0,0,1-.029.408l-1.59,1.591a.314.314,0,0,1-.41.028L10.9,13.269a6.023,6.023,0,0,1-1.342.558l-.239,1.692A.314.314,0,0,1,9.013,15.787ZM7.918,5.99a1.951,1.951,0,1,0,1.929,1.95A1.942,1.942,0,0,0,7.918,5.99Z" fill="#fff"/>
</svg>
