<svg xmlns="http://www.w3.org/2000/svg" width="35" height="35" viewBox="0 0 35 35">
  <g id="Group_3" data-name="Group 3" transform="translate(-347.467 -611.974)">
    <g id="Rectangle_3" data-name="Rectangle 3" transform="translate(347.467 611.974)" fill="none" stroke="#fff" stroke-miterlimit="10" stroke-width="1">
      <rect width="35" height="35" rx="2" stroke="none"/>
      <rect x="0.5" y="0.5" width="34" height="34" rx="1.5" fill="none"/>
    </g>
    <path id="Shape" d="M15.961,12.205a4.629,4.629,0,0,0-2.238-.554A1.6,1.6,0,0,1,12.113,10a1.654,1.654,0,0,1,1.61-1.651,4.629,4.629,0,0,0,2.237-.554,4.226,4.226,0,0,0,1.793-5.046A4.065,4.065,0,0,0,13.214.064,4.15,4.15,0,0,0,9.845,4.178a4.884,4.884,0,0,0,.64,2.245A1.651,1.651,0,0,1,9.9,8.693a1.616,1.616,0,0,1-2.209-.619A4.753,4.753,0,0,0,6.116,6.383a4.011,4.011,0,0,0-5.162.932,4.255,4.255,0,0,0,0,5.37,4.011,4.011,0,0,0,5.162.932,4.751,4.751,0,0,0,1.578-1.69,1.568,1.568,0,0,1,2.209-.62,1.7,1.7,0,0,1,.58,2.271,4.883,4.883,0,0,0-.639,2.244,4.15,4.15,0,0,0,3.369,4.114,4.065,4.065,0,0,0,4.54-2.685A4.225,4.225,0,0,0,15.961,12.205Z" transform="translate(354.467 618.974)" fill="#fff"/>
  </g>
</svg>
