<svg id="OZTG" xmlns="http://www.w3.org/2000/svg" width="35" height="35" viewBox="0 0 35 35">
  <g id="Rectangle_3" data-name="Rectangle 3" fill="none" stroke="#fff" stroke-miterlimit="10" stroke-width="1">
    <rect width="35" height="35" rx="2" stroke="none"/>
    <rect x="0.5" y="0.5" width="34" height="34" rx="1.5" fill="none"/>
  </g>
  <g id="OZEETY" transform="translate(6 5)">
    <path id="Path" d="M0,1.362,2.758,3.581V0Z" transform="translate(1.327 7.89)" fill="#fff"/>
    <path id="Path-2" data-name="Path" d="M0,.095,1,2.539,3.79,0Z" transform="translate(0.095 11.875)" fill="#fff"/>
    <path id="Path-3" data-name="Path" d="M2.359,0,0,2.165,2.439,1Z" transform="translate(1.746 11.97)" fill="#fff"/>
    <path id="Path-4" data-name="Path" d="M1.037,0,0,2.294l3.761-.1Z" transform="translate(0.11 9.421)" fill="#fff"/>
    <path id="Path-5" data-name="Path" d="M1.332,0,0,1.566l1.666-.5Z" transform="translate(4.264 13.965)" fill="#fff"/>
    <path id="Path-6" data-name="Path" d="M.324,0,0,2.135,1.362.519Z" transform="translate(4.09 13.222)" fill="#fff"/>
    <path id="Path-7" data-name="Path" d="M0,1.352l2.464,1L2.818,0Z" transform="translate(1.342 13.252)" fill="#fff"/>
    <path id="Path-8" data-name="Path" d="M0,.175.319,1.2,1.087,0Z" transform="translate(5.805 13.626)" fill="#fff"/>
    <path id="Path-9" data-name="Path" d="M0,2.2l1.586.115L1.661,0Z" transform="translate(5.661 8.479)" fill="#fff"/>
    <path id="Path-10" data-name="Path" d="M.09,0,0,2.414l2.269-.783Z" transform="translate(7.481 8.344)" fill="#fff"/>
    <path id="Path-11" data-name="Path" d="M0,0,1.052,2.693,2.828.354Z" transform="translate(4.404 7.845)" fill="#fff"/>
    <path id="Path-12" data-name="Path" d="M0,1.127H1.561L1.332,0Z" transform="translate(9.91 12.568)" fill="#fff"/>
    <path id="Path-13" data-name="Path" d="M0,0V3.137L.948,2.4Z" transform="translate(4.339 8.344)" fill="#fff"/>
    <path id="Path-14" data-name="Path" d="M0,0,.294,1.157,1.621.03Z" transform="translate(9.351 12.439)" fill="#fff"/>
    <path id="Path-15" data-name="Path" d="M0,1.885H1.741L.668,0Z" transform="translate(9.366 10.309)" fill="#fff"/>
    <path id="Path-16" data-name="Path" d="M0,.738,1.5,1.88,2.175,0Z" transform="translate(7.621 10.234)" fill="#fff"/>
    <path id="Path-17" data-name="Path" d="M0,0,.888.828,1.5,0Z" transform="translate(9.885 13.965)" fill="#fff"/>
    <path id="Path-18" data-name="Path" d="M0,.768l.559.818V0Z" transform="translate(10.942 14.194)" fill="#fff"/>
    <path id="Path-19" data-name="Path" d="M0,0,2.214,3.835V.843Z" transform="translate(9.476 21.102)" fill="#fff"/>
    <path id="Path-20" data-name="Path" d="M0,2.8l2.289.853V0Z" transform="translate(9.401 18.01)" fill="#fff"/>
    <path id="Path-21" data-name="Path" d="M0,.843V3.835L2.214,0Z" transform="translate(11.935 21.102)" fill="#fff"/>
    <path id="Path-22" data-name="Path" d="M0,0V3.656L2.289,2.8Z" transform="translate(11.935 18.01)" fill="#fff"/>
    <path id="Path-23" data-name="Path" d="M0,.374l.8.958L1.387,0Z" transform="translate(5.985 17.217)" fill="#fff"/>
    <path id="Path-24" data-name="Path" d="M0,.738l1.372.653L.763,0Z" transform="translate(5.945 15.386)" fill="#fff"/>
    <path id="Path-25" data-name="Path" d="M0,0,.374.853.514.6Z" transform="translate(7.202 15.9)" fill="#fff"/>
    <path id="Path-26" data-name="Path" d="M0,0V1L1.352.633Z" transform="translate(5.855 16.359)" fill="#fff"/>
    <path id="Path-27" data-name="Path" d="M.042,0l.18.613L.456.349Z" transform="translate(8.396 15.591)" fill="#fff"/>
    <path id="Path-28" data-name="Path" d="M.244,0,.06.678H.439Z" transform="translate(7.965 15.68)" fill="#fff"/>
    <path id="Path-29" data-name="Path" d="M0,0,.783.923,1.027.035Z" transform="translate(7.022 15.311)" fill="#fff"/>
    <path id="Path-30" data-name="Path" d="M.122.277.377.441.317.057Z" transform="translate(8.626 16.152)" fill="#fff"/>
    <path id="Path-31" data-name="Path" d="M0,0,.219.953.529.19Z" transform="translate(8.085 17.865)" fill="#fff"/>
    <path id="Path-32" data-name="Path" d="M.344,0,0,.858,1,.618Z" transform="translate(8.479 18.194)" fill="#fff"/>
    <path id="Path-33" data-name="Path" d="M0,.808l1.077.324L.813,0Z" transform="translate(7.027 17.915)" fill="#fff"/>
    <path id="Path-34" data-name="Path" d="M.027,0,.262.5.471.209Z" transform="translate(10.516 17.406)" fill="#fff"/>
    <path id="Path-35" data-name="Path" d="M.409,0,0,.923.594.339Z" transform="translate(7.167 17.311)" fill="#fff"/>
    <path id="Path-36" data-name="Path" d="M.012.294.486.5.242,0Z" transform="translate(10.017 17.391)" fill="#fff"/>
    <path id="Path-37" data-name="Path" d="M.055,0,0,.7.623.244Z" transform="translate(9.89 17.915)" fill="#fff"/>
    <path id="Path-38" data-name="Path" d="M0,.155.613.723.663,0Z" transform="translate(9.032 17.895)" fill="#fff"/>
    <path id="Path-39" data-name="Path" d="M.06.219l.379.17L.374.11Z" transform="translate(10.563 16.952)" fill="#fff"/>
    <path id="Path-40" data-name="Path" d="M.157.209.2.4.342.095Z" transform="translate(11.01 16.748)" fill="#fff"/>
    <path id="Path-41" data-name="Path" d="M0,0,.589,1.332l.8-.958Z" transform="translate(16.274 17.217)" fill="#fff"/>
    <path id="Path-42" data-name="Path" d="M.613,0,0,1.391,1.377.738Z" transform="translate(16.304 15.386)" fill="#fff"/>
    <path id="Path-43" data-name="Path" d="M0,.6.14.853.514,0Z" transform="translate(15.91 15.9)" fill="#fff"/>
    <path id="Path-44" data-name="Path" d="M0,.633,1.347,1V0Z" transform="translate(16.414 16.364)" fill="#fff"/>
    <path id="Path-45" data-name="Path" d="M.045.349.279.613.454,0Z" transform="translate(14.728 15.611)" fill="#fff"/>
    <path id="Path-46" data-name="Path" d="M.06.678H.439L.249,0Z" transform="translate(15.162 15.661)" fill="#fff"/>
    <path id="Path-47" data-name="Path" d="M0,.035.244.923,1.027,0Z" transform="translate(15.576 15.311)" fill="#fff"/>
    <path id="Path-48" data-name="Path" d="M.182.057.122.441.377.277Z" transform="translate(14.496 16.152)" fill="#fff"/>
    <path id="Path-49" data-name="Path" d="M0,.19.3.953.529,0Z" transform="translate(15.012 17.865)" fill="#fff"/>
    <path id="Path-50" data-name="Path" d="M0,.618,1,.858.653,0Z" transform="translate(14.129 18.194)" fill="#fff"/>
    <path id="Path-51" data-name="Path" d="M.269,0,0,1.132,1.082.808Z" transform="translate(15.516 17.915)" fill="#fff"/>
    <path id="Path-52" data-name="Path" d="M.027.209.237.5.471,0Z" transform="translate(12.611 17.391)" fill="#fff"/>
    <path id="Path-53" data-name="Path" d="M0,.339.594.923.19,0Z" transform="translate(15.865 17.311)" fill="#fff"/>
    <path id="Path-54" data-name="Path" d="M.239,0,0,.5l.5-.2Z" transform="translate(13.122 17.391)" fill="#fff"/>
    <path id="Path-55" data-name="Path" d="M0,.244.623.7.569,0Z" transform="translate(13.112 17.915)" fill="#fff"/>
    <path id="Path-56" data-name="Path" d="M0,0,.04.723.653.155Z" transform="translate(13.925 17.895)" fill="#fff"/>
    <path id="Path-57" data-name="Path" d="M.12.11.06.389.439.219Z" transform="translate(12.563 16.952)" fill="#fff"/>
    <path id="Path-58" data-name="Path" d="M.152.095.292.4.347.2Z" transform="translate(12.122 16.753)" fill="#fff"/>
    <path id="Path-59" data-name="Path" d="M0,0V3.581L2.758,1.357Z" transform="translate(19.531 7.895)" fill="#fff"/>
    <path id="Path-60" data-name="Path" d="M0,0,2.793,2.539l1-2.444Z" transform="translate(19.745 11.865)" fill="#fff"/>
    <path id="Path-61" data-name="Path" d="M0,1,2.444,2.17.07,0Z" transform="translate(19.451 11.97)" fill="#fff"/>
    <path id="Path-62" data-name="Path" d="M0,2.194l3.761.1L2.723,0Z" transform="translate(19.755 9.421)" fill="#fff"/>
    <path id="Path-63" data-name="Path" d="M0,1.067l1.666.5L.334,0Z" transform="translate(17.695 13.965)" fill="#fff"/>
    <path id="Path-64" data-name="Path" d="M0,.519,1.362,2.135,1.037,0Z" transform="translate(18.174 13.222)" fill="#fff"/>
    <path id="Path-65" data-name="Path" d="M0,0,.354,2.349l2.464-1Z" transform="translate(19.451 13.247)" fill="#fff"/>
    <path id="Path-66" data-name="Path" d="M0,0,.768,1.2,1.087.175Z" transform="translate(16.733 13.626)" fill="#fff"/>
    <path id="Path-67" data-name="Path" d="M0,0,.075,2.309l1.576-.1Z" transform="translate(16.304 8.479)" fill="#fff"/>
    <path id="Path-68" data-name="Path" d="M0,1.651l2.259.763L2.18,0Z" transform="translate(13.875 8.324)" fill="#fff"/>
    <path id="Path-69" data-name="Path" d="M0,.354,1.771,2.693,2.828,0Z" transform="translate(16.394 7.845)" fill="#fff"/>
    <path id="Path-70" data-name="Path" d="M0,1.127H1.561L.229,0Z" transform="translate(12.154 12.568)" fill="#fff"/>
    <path id="Path-71" data-name="Path" d="M0,2.414l.948.723V0Z" transform="translate(18.349 8.334)" fill="#fff"/>
    <path id="Path-72" data-name="Path" d="M0,.03,1.327,1.157,1.621,0Z" transform="translate(12.638 12.439)" fill="#fff"/>
    <path id="Path-73" data-name="Path" d="M1.072,0,0,1.885H1.741Z" transform="translate(12.518 10.329)" fill="#fff"/>
    <path id="Path-74" data-name="Path" d="M0,0,.678,1.88,2.175.738Z" transform="translate(13.815 10.234)" fill="#fff"/>
    <path id="Path-75" data-name="Path" d="M0,0,.608.828,1.5,0Z" transform="translate(12.244 13.965)" fill="#fff"/>
    <path id="Path-76" data-name="Path" d="M0,0V1.576L.559.768Z" transform="translate(12.124 14.194)" fill="#fff"/>
    <path id="Path-77" data-name="Path" d="M0,0,3.491,9.576V1.1Z" transform="translate(8.224 2.189)" fill="#fff"/>
    <path id="Path-78" data-name="Path" d="M0,1.1V9.576L3.491,0Z" transform="translate(11.935 2.175)" fill="#fff"/>
    <path id="Path-79" data-name="Path" d="M0,1.93,3.491,3.012V0A4.284,4.284,0,0,0,0,1.93Z" transform="translate(8.214)" fill="#fff"/>
    <path id="Path-80" data-name="Path" d="M0,0V2.992L3.491,1.91A4.284,4.284,0,0,0,0,0Z" transform="translate(11.935)" fill="#fff"/>
  </g>
</svg>
