<svg xmlns="http://www.w3.org/2000/svg" width="653" height="274" viewBox="0 0 653 274">
  <g id="Group_3" data-name="Group 3" transform="translate(2217 3631.5)">
    <rect id="Rectangle" width="653" height="274" rx="2" transform="translate(-2217 -3631.5)" fill="#06062b"/>
    <text id="_15k" data-name="15k" transform="translate(-2193 -3551.5)" fill="rgba(139,149,158,0.3)" font-size="10" font-family="Heebo-Regular, Heebo"><tspan x="11.343" y="10">15k</tspan></text>
    <text id="_20k" data-name="20k" transform="translate(-2193 -3589.5)" fill="rgba(139,149,158,0.3)" font-size="10" font-family="Heebo-Regular, Heebo"><tspan x="11.343" y="10">20k</tspan></text>
    <text id="_10k" data-name="10k" transform="translate(-2193 -3514.5)" fill="rgba(139,149,158,0.3)" font-size="10" font-family="Heebo-Regular, Heebo"><tspan x="11.343" y="10">10k</tspan></text>
    <text id="_5k" data-name="5k" transform="translate(-2193 -3476.95)" fill="rgba(139,149,158,0.3)" font-size="10" font-family="Heebo-Regular, Heebo"><tspan x="14.153" y="10">5k</tspan></text>
    <text id="_0k" data-name="0k" transform="translate(-2193 -3439.5)" fill="rgba(139,149,158,0.3)" font-size="10" font-family="Heebo-Regular, Heebo"><tspan x="14.153" y="10">0k</tspan></text>
    <text id="_23_oct" data-name="23 oct" transform="translate(-2128 -3405.5)" fill="rgba(139,149,158,0.3)" font-size="10" font-family="Heebo-Regular, Heebo"><tspan x="5.53" y="10">23 oct</tspan></text>
    <text id="_6_nov" data-name="6 nov" transform="translate(-2028 -3405.5)" fill="rgba(139,149,158,0.3)" font-size="10" font-family="Heebo-Regular, Heebo"><tspan x="7.447" y="10">6 nov</tspan></text>
    <text id="_20_nov" data-name="20 nov" transform="translate(-1928 -3405.5)" fill="rgba(139,149,158,0.3)" font-size="10" font-family="Heebo-Regular, Heebo"><tspan x="4.637" y="10">20 nov</tspan></text>
    <text id="_4_dec" data-name="4 dec" transform="translate(-1828 -3405.5)" fill="rgba(139,149,158,0.3)" font-size="10" font-family="Heebo-Regular, Heebo"><tspan x="7.354" y="10">4 dec</tspan></text>
    <text id="_18_dec" data-name="18 dec" transform="translate(-1728 -3405.5)" fill="rgba(139,149,158,0.3)" font-size="10" font-family="Heebo-Regular, Heebo"><tspan x="4.544" y="10">18 dec</tspan></text>
    <text id="_1_jan" data-name="1 jan" transform="translate(-1628 -3405.5)" fill="rgba(139,149,158,0.3)" font-size="10" font-family="Heebo-Regular, Heebo"><tspan x="8.768" y="10">1 jan</tspan></text>
    <rect id="Rectangle_8" data-name="Rectangle 8" width="539" height="1" transform="translate(-2137 -3582.5)" fill="rgba(139,149,158,0.3)"/>
    <rect id="Rectangle_8-2" data-name="Rectangle 8" width="539" height="1" transform="translate(-2137 -3545.25)" fill="rgba(139,149,158,0.3)"/>
    <rect id="Rectangle_8-3" data-name="Rectangle 8" width="539" height="1" transform="translate(-2137 -3508)" fill="rgba(139,149,158,0.3)"/>
    <rect id="Rectangle_8-4" data-name="Rectangle 8" width="539" height="1" transform="translate(-2137 -3470.75)" fill="rgba(139,149,158,0.3)"/>
    <rect id="Rectangle_8-5" data-name="Rectangle 8" width="539" height="1" transform="translate(-2137 -3433.5)" fill="rgba(139,149,158,0.3)"/>
    <rect id="Rectangle_11" data-name="Rectangle 11" width="1" height="4" transform="translate(-2113 -3432.5)" fill="rgba(139,149,158,0.3)"/>
    <rect id="Rectangle_11-2" data-name="Rectangle 11" width="1" height="4" transform="translate(-2011.6 -3432.5)" fill="rgba(139,149,158,0.3)"/>
    <rect id="Rectangle_11-3" data-name="Rectangle 11" width="1" height="4" transform="translate(-1910.2 -3432.5)" fill="rgba(139,149,158,0.3)"/>
    <rect id="Rectangle_11-4" data-name="Rectangle 11" width="1" height="4" transform="translate(-1808.8 -3432.5)" fill="rgba(139,149,158,0.3)"/>
    <rect id="Rectangle_11-5" data-name="Rectangle 11" width="1" height="4" transform="translate(-1707.4 -3432.5)" fill="rgba(139,149,158,0.3)"/>
    <rect id="Rectangle_11-6" data-name="Rectangle 11" width="1" height="4" transform="translate(-1606 -3432.5)" fill="rgba(139,149,158,0.3)"/>
    <path id="Path_4" data-name="Path 4" d="M0,105.4H13.162L28.093,107l12.193-3.165H58.677L62.362,107l11.73-3.165L86.614,107l6-4.794s4.756-.405,7.055-.762,16.266-6.78,16.918-6.715,11.115-2.1,11.115-2.1h5.527s4.77,3.247,5.725,3.287,12.69-3.287,12.69-3.287l22.316,11.2,4.937-5.069h5.951l12.131-9.756,7.048.934,16.074-4.251,5.328,1.484s4.8-2.149,5.789-1.484,6.975,2.269,6.975,2.269l22.4-13.679,16.905-.664,6.45-7.752,23.192-6.537,11.883-40.08,11.414,14.243h6.2l5.234-13.122,7.215-3.889,4.243,5.441h7.319L371.486,0l11.476,2.606,18.271,27.6,4.579,12.131,7.15-5.2,4.884,4.349,6.692.852,5.189-14.482,10.56,9.281,6.85.781,5.287,12.911s6-9.246,6.46-8.491,6.436,3.41,6.436,3.41l6.513-11.333,10.556-2.367s4.849-12.205,5.5-12.8,6.145-2.769,6.145-2.769L511,37.914l6.18-3.5,5.731,11.333L536,39.633" transform="translate(-2134 -3555.5)" fill="none" stroke="#7ac231" stroke-miterlimit="10" stroke-width="1"/>
  </g>
</svg>
