<svg xmlns="http://www.w3.org/2000/svg" width="16.485" height="21.82" viewBox="0 0 16.485 21.82">
  <path id="Shape" d="M8.314,21.821h0l-1.89-.471L7.2,18.256c-.536-.133-1.03-.262-1.507-.392l-.775,3.109L3.026,20.5l.782-3.141-.514-.134c-.272-.071-.551-.144-.833-.215L0,16.4l.939-2.164c.011,0,1.3.345,1.371.345a1.051,1.051,0,0,0,.226.028.693.693,0,0,0,.642-.478L4.415,9.172l.082.02.118.029a1.686,1.686,0,0,0-.2-.063L5.3,5.621a1.009,1.009,0,0,0-.881-1.1c-.006-.023-.9-.233-1.373-.341l.5-2.02,2.607.652,0,.009c.39.1.794.19,1.208.284L8.137,0l1.889.472L9.267,3.515l.024,0c.491.113,1,.229,1.49.352L11.535.848l1.891.471-.775,3.106c2.881.992,4.085,2.374,3.79,4.348a3.026,3.026,0,0,1-2.414,2.776c1.929,1,2.481,2.461,1.737,4.585a3.946,3.946,0,0,1-4.2,2.824A13.444,13.444,0,0,1,9.1,18.685L8.314,21.82ZM7.341,11.428,6.3,15.59c.106.026.231.059.37.1a13.074,13.074,0,0,0,3.123.532c1.314,0,2.1-.467,2.325-1.388a1.692,1.692,0,0,0-.187-1.344C11.2,12.3,8.992,11.8,7.805,11.535,7.625,11.5,7.47,11.46,7.341,11.428Zm1.417-5.68L7.816,9.523c.089.022.194.05.312.082a10.2,10.2,0,0,0,2.515.43c1.154,0,1.848-.436,2.062-1.3a1.6,1.6,0,0,0-.169-1.274c-.629-1.015-2.425-1.413-3.391-1.627C9,5.8,8.865,5.775,8.758,5.748Z" fill="#fff"/>
</svg>
