<svg id="img-fi-visa" xmlns="http://www.w3.org/2000/svg" width="45" height="29.143" viewBox="0 0 45 29.143">
  <g id="Rectangle" fill="#fff" stroke="#979797" stroke-miterlimit="10" stroke-width="2.813">
    <rect width="45" height="29.143" rx="5.625" stroke="none"/>
    <rect x="1.406" y="1.406" width="42.188" height="26.33" rx="4.219" fill="none"/>
  </g>
  <g id="Visa" transform="translate(3.214 8.095)">
    <path id="Fill_3" data-name="Fill 3" d="M8.592.446A7.345,7.345,0,0,0,6.024,0C3.2,0,1.2,1.433,1.186,3.488,1.169,5.006,2.608,5.854,3.694,6.36c1.114.518,1.491.848,1.485,1.31C5.171,8.379,4.288,8.7,3.464,8.7A5.989,5.989,0,0,1,.771,8.147L.4,7.981,0,10.346a9,9,0,0,0,3.19.563c3.01,0,4.964-1.416,4.986-3.611.01-1.2-.751-2.116-2.4-2.87-1-.489-1.614-.815-1.61-1.31,0-.439.521-.908,1.641-.908a5.254,5.254,0,0,1,2.143.4l.256.123L8.592.446" transform="translate(18.441 0.629)" fill="#16216a"/>
    <path id="Fill_4" data-name="Fill 4" d="M3.007,10.561H0L4.253.876A1.416,1.416,0,0,1,5.751,0H7.962l2.319,10.559H7.625c0-.016-.267-1.226-.349-1.582l-1.98,0H5.26l-1.65,0c-.111.282-.6,1.574-.6,1.587Zm2.946-7.71c-.088.24-.213.565-.3.781-.068.177-.085.222-.085.225-.009.024-.9,2.354-1.14,2.955H6.81c-.113-.525-.659-3.029-.664-3.054Z" transform="translate(26.411 0.823)" fill="#16216a"/>
    <path id="Fill_5" data-name="Fill 5" d="M7.067,0l-2.8,7.207-.3-1.464A8.226,8.226,0,0,0,0,1.309l2.562,9.242,3.03,0L10.1,0H7.067" transform="translate(4.317 0.82)" fill="#16216a"/>
    <path id="Fill_6" data-name="Fill 6" d="M4.654,0H.035L0,.219c3.592.875,5.97,2.99,6.955,5.529l-1-4.857A1.2,1.2,0,0,0,4.654,0" transform="translate(1.326 0.815)" fill="#16216a"/>
    <path id="Fill_7" data-name="Fill 7" d="M0,10.567,1.79,0H4.654L2.86,10.567H0" transform="translate(13.786 0.813)" fill="#16216a"/>
  </g>
</svg>
